<?xml version="1.0" encoding="UTF-8" standalone="no"?>
<!-- Uploaded to: SVG Repo, www.svgrepo.com, Generator: SVG Repo Mixer Tools -->

<svg
   width="800px"
   height="1500px"
   viewBox="0 0 16 16"
   fill="#000000"
   class="bi bi-ladder"
   version="1.1"
   id="svg1"
   sodipodi:docname="ladder2.svg"
   inkscape:version="1.3 (0e150ed6c4, 2023-07-21)"
   xmlns:inkscape="http://www.inkscape.org/namespaces/inkscape"
   xmlns:sodipodi="http://sodipodi.sourceforge.net/DTD/sodipodi-0.dtd"
   xmlns="http://www.w3.org/2000/svg"
   xmlns:svg="http://www.w3.org/2000/svg">
  <defs
     id="defs1" />
  <sodipodi:namedview
     id="namedview1"
     pagecolor="#ffffff"
     bordercolor="#000000"
     borderopacity="0.25"
     inkscape:showpageshadow="2"
     inkscape:pageopacity="0.0"
     inkscape:pagecheckerboard="0"
     inkscape:deskcolor="#d1d1d1"
     inkscape:zoom="0.80125"
     inkscape:cx="400"
     inkscape:cy="574.72699"
     inkscape:window-width="1440"
     inkscape:window-height="837"
     inkscape:window-x="1358"
     inkscape:window-y="-8"
     inkscape:window-maximized="1"
     inkscape:current-layer="svg1" />
  <path
     d="M4.5 1a.5.5 0 0 1 .5.5V2h6v-.5a.5.5 0 0 1 1 0v14a.5.5 0 0 1-1 0V15H5v.5a.5.5 0 0 1-1 0v-14a.5.5 0 0 1 .5-.5zM5 14h6v-2H5v2zm0-3h6V9H5v2zm0-3h6V6H5v2zm0-3h6V3H5v2z"
     id="path1" />
  <path
     d="m 4.4970671,13.001716 a 0.5,0.5 0 0 1 0.5,0.5 v 0.5 h 5.9999999 v -0.5 a 0.5,0.5 0 0 1 1,0 v 14 a 0.5,0.5 0 0 1 -1,0 v -0.5 H 4.9970671 v 0.5 a 0.5,0.5 0 0 1 -1,0 v -14 a 0.5,0.5 0 0 1 0.5,-0.5 z m 0.5,13 h 5.9999999 v -2 H 4.9970671 Z m 0,-3 h 5.9999999 v -2 H 4.9970671 Z m 0,-3 h 5.9999999 v -2 H 4.9970671 Z m 0,-3 h 5.9999999 v -2 H 4.9970671 Z"
     id="path1-5" />
</svg>
