<?xml version="1.0" encoding="UTF-8" standalone="no"?>
<!-- Uploaded to: SVG Repo, www.svgrepo.com, Generator: SVG Repo Mixer Tools -->

<svg
   width="800px"
   height="1500px"
   viewBox="0 0 16 16"
   fill="#000000"
   class="bi bi-ladder"
   version="1.1"
   id="svg1"
   sodipodi:docname="ladder2.svg"
   inkscape:version="1.3 (0e150ed6c4, 2023-07-21)"
   xmlns:inkscape="http://www.inkscape.org/namespaces/inkscape"
   xmlns:sodipodi="http://sodipodi.sourceforge.net/DTD/sodipodi-0.dtd"
   xmlns="http://www.w3.org/2000/svg"
   xmlns:svg="http://www.w3.org/2000/svg">
  <defs
     id="defs1" />
  <sodipodi:namedview
     id="namedview1"
     pagecolor="#ffffff"
     bordercolor="#000000"
     borderopacity="0.25"
     inkscape:showpageshadow="2"
     inkscape:pageopacity="0.0"
     inkscape:pagecheckerboard="0"
     inkscape:deskcolor="#d1d1d1"
     inkscape:zoom="0.80125"
     inkscape:cx="400"
     inkscape:cy="76.75507"
     inkscape:window-width="1440"
     inkscape:window-height="837"
     inkscape:window-x="1358"
     inkscape:window-y="-8"
     inkscape:window-maximized="1"
     inkscape:current-layer="svg1" />
  <path
     d="m 4.5,-6.6131045 a 0.5,0.5 0 0 1 0.5,0.5 v 0.5 h 6 v -0.5 a 0.5,0.5 0 0 1 1,0 v 14 a 0.5,0.5 0 0 1 -1,0 v -0.5 H 5 v 0.5 a 0.5,0.5 0 0 1 -1,0 v -14 a 0.5,0.5 0 0 1 0.5,-0.5 z m 0.5,13 h 6 v -2 H 5 Z m 0,-3 h 6 v -2 H 5 Z M 5,0.38689548 h 6 V -1.6131045 H 5 Z M 5,-2.6131045 h 6 v -2 H 5 Z"
     id="path1" />
  <path
     d="m 4.4970671,5.3886115 a 0.5,0.5 0 0 1 0.5,0.5 v 0.5 h 5.9999999 v -0.5 a 0.5,0.5 0 0 1 1,0 V 19.888611 a 0.5,0.5 0 0 1 -1,0 v -0.5 H 4.9970671 v 0.5 a 0.5,0.5 0 0 1 -1,0 V 5.8886115 a 0.5,0.5 0 0 1 0.5,-0.5 z m 0.5,12.9999995 h 5.9999999 v -2 H 4.9970671 Z m 0,-3 h 5.9999999 v -2 H 4.9970671 Z m 0,-3 h 5.9999999 v -2 H 4.9970671 Z m 0,-2.9999995 h 5.9999999 v -2 H 4.9970671 Z"
     id="path1-5" />
</svg>
